<svg width="111" height="33" viewBox="0 0 111 33" fill="none" xmlns="http://www.w3.org/2000/svg">
<path d="M15.8561 0.043335H10.3535L6.1507 8.6716V0.043335H0.561401V23.9337H6.1507V17.0397L7.62384 14.4382L10.3535 23.9337H16.5927L11.2201 8.19466L15.8561 0.043335Z" fill="#F8F9F7"/>
<path d="M27.8581 9.40872L27.9881 13.441H27.6848C27.2515 11.7934 26.645 9.8423 25.8217 7.58767L23.0921 0H17.4161V23.8903H22.7454V14.5683L22.6154 10.536H22.9187C23.352 12.1836 23.9586 14.1348 24.7818 16.3894L27.5115 23.9771H33.1442V0.0433583H27.8581V9.40872Z" fill="#F8F9F7"/>
<path d="M35.2238 23.9338H72.8326V19.0777H40.8131V13.9181H72.2693V9.27874H40.8131V4.85621H72.8326V0.043457H35.2238V23.9338Z" fill="#F8F9F7"/>
<path d="M80.5882 0.043457L74.349 23.9338H80.0683L80.9348 19.1644H85.5276L86.3942 23.9338H92.4601L86.1775 0.043457H80.5882ZM81.7148 14.9153L83.2312 6.59053L84.7044 14.9153H81.7148Z" fill="#F8F9F7"/>
<path d="M109.141 5.72337C108.535 3.90233 107.582 2.51487 106.195 1.51763C104.809 0.520396 103.076 0.043457 100.996 0.043457H94.02V23.9338H100.259C103.465 23.9338 105.892 22.8065 107.538 20.5952C109.185 18.3839 110.051 15.3922 110.051 11.7068C110.008 9.53888 109.705 7.54441 109.141 5.72337ZM99.9559 19.2511H99.566V4.68277H100.303C101.732 4.68277 102.729 5.28979 103.379 6.54717C103.985 7.7612 104.332 9.40881 104.332 11.4466C104.289 16.6496 102.859 19.2511 99.9559 19.2511Z" fill="#F8F9F7"/>
<path d="M2.1645 29.787H1.25463V27.6625H0.561401V32.5619H1.25463V30.4374H2.1645V32.5619H2.90106V27.6625H2.1645V29.787Z" fill="#F8F9F7"/>
<path d="M7.06056 28.0093C6.71393 28.3995 6.71393 28.9632 6.71393 30.1338C6.71393 31.3045 6.71393 31.8682 7.06056 32.2584C7.27721 32.5185 7.58052 32.6053 7.92715 32.6053C8.27379 32.6053 8.5771 32.4752 8.79375 32.2584C9.14038 31.8682 9.14038 31.3479 9.14038 30.1338C9.14038 28.9198 9.14038 28.3561 8.79375 28.0093C8.36045 27.5323 7.49386 27.489 7.06056 28.0093ZM8.44711 30.1338C8.44711 31.2178 8.40378 31.608 8.27379 31.8248C8.10047 32.0416 7.75384 32.0416 7.62385 31.8248C7.45053 31.608 7.45053 31.1744 7.45053 30.1338C7.45053 29.0932 7.49386 28.6596 7.62385 28.4429C7.71051 28.3561 7.79717 28.3128 7.97048 28.3128C8.1438 28.3128 8.23046 28.3561 8.31712 28.4429C8.44711 28.6596 8.44711 29.0499 8.44711 30.1338Z" fill="#F8F9F7"/>
<path d="M14.513 29.8737L13.9931 29.657C13.6465 29.5269 13.5598 29.3968 13.5598 28.9632C13.5598 28.7031 13.6031 28.573 13.6898 28.4429C13.8631 28.2695 14.2097 28.2695 14.3397 28.4429C14.4697 28.573 14.4697 28.7464 14.4697 28.9632V29.0499H15.163V28.9632C15.163 28.4429 15.0763 28.1828 14.8163 27.9226C14.4264 27.5758 13.6031 27.5324 13.1699 27.9226C12.9099 28.1394 12.7799 28.4863 12.7799 28.9632C12.7799 29.7003 12.9532 30.0038 13.4732 30.2206L13.9931 30.4374C14.3397 30.5675 14.4264 30.7409 14.4264 31.2612C14.4264 31.5647 14.4264 31.7381 14.2964 31.8682C14.1231 32.0416 13.7331 32.0416 13.6031 31.8682C13.5165 31.7381 13.4732 31.6081 13.4732 31.3046V31.2178H12.7799V31.3046C12.7799 31.8248 12.8666 32.1284 13.0832 32.3451C13.2998 32.5619 13.6031 32.6487 13.9498 32.6487C14.3397 32.6487 14.643 32.5619 14.8163 32.3451C15.0763 32.085 15.1196 31.7381 15.1196 31.2612C15.2063 30.5241 15.1196 30.0905 14.513 29.8737Z" fill="#F8F9F7"/>
<path d="M20.1456 27.6626H19.019V32.562H19.7123V30.5676H20.1456C20.9689 30.5676 21.3588 30.134 21.3588 29.0934C21.3155 28.1395 20.9689 27.6626 20.1456 27.6626ZM20.1456 29.9606H19.7123V28.3563H20.1456C20.4922 28.3563 20.6222 28.5731 20.6222 29.1801C20.6222 29.7438 20.4922 29.9606 20.1456 29.9606Z" fill="#F8F9F7"/>
<path d="M25.8216 27.6626H25.1283V32.562H25.8216V27.6626Z" fill="#F8F9F7"/>
<path d="M29.5045 28.313H30.2844V32.562H30.9777V28.313H31.8009V27.6626H29.5045V28.313Z" fill="#F8F9F7"/>
<path d="M35.8737 27.7492L34.7472 32.6053L35.4838 32.5619L35.6571 31.478L36.6969 31.4346L37.0002 32.6053H37.6935L36.5236 27.7058L35.8737 27.7492ZM36.567 30.8276H35.8304L36.177 29.0066L36.567 30.8276Z" fill="#F8F9F7"/>
<path d="M41.8964 27.6626H41.2031V32.562H43.1529V31.9117H41.8964V27.6626Z" fill="#F8F9F7"/>
<path d="M47.529 27.6626H46.8357V32.562H47.529V27.6626Z" fill="#F8F9F7"/>
<path d="M51.1685 28.313H51.9917V32.562H52.685V28.313H53.4648V27.6626H51.1685V28.313Z" fill="#F8F9F7"/>
<path d="M58.621 27.7493L58.1444 29.527L57.6244 27.6626H56.8878L57.7977 30.5676V32.562H58.491V30.6109L59.4009 27.6626L58.621 27.7493Z" fill="#F8F9F7"/>
<path d="M77.512 27.6626H76.3422V32.562H77.512C77.8587 32.562 78.162 32.432 78.3786 32.2152C78.7252 31.825 78.7252 31.2613 78.7252 30.134C78.7252 29.0067 78.7252 28.443 78.3786 28.0528C78.1186 27.7927 77.8587 27.6626 77.512 27.6626ZM77.0354 28.313H77.4687C77.642 28.313 77.7287 28.3563 77.8153 28.4864C77.9886 28.7032 77.9886 29.0501 77.9886 30.134C77.9886 31.2179 77.9453 31.5648 77.8153 31.7816C77.7287 31.8683 77.642 31.955 77.4687 31.955H77.0354V28.313Z" fill="#F8F9F7"/>
<path d="M82.538 32.562H84.4878V31.9117H83.2312V30.4375H84.3145V29.7871H83.2312V28.313H84.4878V27.6626H82.538V32.562Z" fill="#F8F9F7"/>
<path d="M89.8171 29.8737L89.2971 29.657C88.9505 29.5269 88.8638 29.3968 88.8638 28.9632C88.8638 28.7031 88.9072 28.573 88.9938 28.4429C89.1671 28.2695 89.5138 28.2695 89.6438 28.4429C89.7737 28.573 89.7737 28.7464 89.7737 28.9632V29.0499H90.467V28.9632C90.467 28.4429 90.3803 28.1828 90.1204 27.9226C89.7304 27.5758 88.9072 27.5324 88.4739 27.9226C88.2139 28.1394 88.0839 28.4863 88.0839 28.9632C88.0839 29.7003 88.2572 30.0038 88.7772 30.2206L89.2971 30.4374C89.6438 30.5675 89.7304 30.7409 89.7304 31.2612C89.7304 31.5647 89.6871 31.7381 89.6004 31.8682C89.4271 32.0416 89.0372 32.0416 88.9072 31.8682C88.8205 31.7381 88.7772 31.6081 88.7772 31.3046V31.2178H88.0839V31.3046C88.0839 31.8248 88.1706 32.1284 88.3872 32.3451C88.6039 32.5619 88.9072 32.6487 89.2538 32.6487C89.6438 32.6487 89.9471 32.5619 90.1637 32.3451C90.4237 32.085 90.467 31.7381 90.467 31.2612C90.5103 30.5241 90.3803 30.0905 89.8171 29.8737Z" fill="#F8F9F7"/>
<path d="M95.0165 27.6626H94.3232V32.562H95.0165V27.6626Z" fill="#F8F9F7"/>
<path d="M101.212 29.0065V28.9198C101.212 28.4862 101.082 28.1827 100.866 27.9225C100.649 27.7057 100.389 27.619 100.043 27.619C99.6959 27.619 99.3926 27.7491 99.176 27.9659C98.8293 28.3561 98.8293 28.9198 98.8293 30.0904C98.8293 31.2611 98.8293 31.8248 99.176 32.215C99.3926 32.4751 99.6959 32.5619 100.043 32.5619C100.736 32.5619 101.212 32.0849 101.212 31.3045V29.8303H99.9559V30.4373H100.476V31.3045C100.476 31.6513 100.302 31.9115 99.9992 31.9115C99.8692 31.9115 99.7392 31.8681 99.6526 31.7814C99.4793 31.5646 99.4793 31.131 99.4793 30.0904C99.4793 29.0498 99.5226 28.6163 99.6526 28.3995C99.7392 28.3128 99.8259 28.2694 99.9992 28.2694C100.302 28.2694 100.476 28.4862 100.476 28.9198V29.0065H101.212Z" fill="#F8F9F7"/>
<path d="M106.802 27.6626V30.6543L105.675 27.6626H105.069V32.562H105.762V29.6137L106.932 32.562H107.495V27.6626H106.802Z" fill="#F8F9F7"/>
<path d="M68.2831 30.7409V32.2584H67.4165V30.7409H65.8567V29.8737H67.4165V28.3562H68.2831V29.9171H69.7996V30.7842C69.8429 30.7409 68.2831 30.7409 68.2831 30.7409Z" fill="#F8F9F7"/>
</svg>
