<svg width="171" height="33" viewBox="0 0 171 33" fill="none" xmlns="http://www.w3.org/2000/svg">
<path d="M24.4465 17.3013V11.6097H21.8715V12.6007C21.2206 11.8079 20.3434 11.4398 19.2116 11.4398C17.9665 11.4398 16.9761 11.8645 16.2121 12.7423C15.4481 13.6201 15.052 14.6678 15.052 15.9137V15.9421C14.4295 16.5084 13.7786 16.8765 13.241 17.0747C12.4487 17.3862 11.5432 17.5278 10.6377 17.5278H5.17645C5.17645 17.5278 6.05364 17.1597 6.05364 14.7245V6.76758C6.05364 5.97472 6.3932 5.2385 7.01573 4.53059C7.58166 3.90763 8.37397 3.53952 9.22287 3.53952C10.1001 3.53952 10.8358 3.82268 11.4017 4.38901C11.9959 4.95534 12.2789 5.66325 12.2789 6.54105C12.2789 7.6737 11.7979 8.5515 10.8358 9.14615L10.8075 9.17447L12.9863 11.015C13.5805 10.6186 14.1465 9.99564 14.5992 9.14615C15.0803 8.24002 15.3349 7.36222 15.3349 6.56936C15.3349 4.75712 14.769 3.31299 13.6371 2.26529C12.5336 1.2459 11.0339 0.736206 9.19457 0.736206C7.41188 0.736206 5.91216 1.33085 4.78029 2.43518C3.62013 3.59615 2.99761 5.09692 2.99761 6.7959V14.5546C2.99761 15.6306 2.77123 16.3102 2.26189 16.7632C1.78085 17.188 0.960247 17.4711 0.281128 17.5561V20.1329H10.4962C12.1091 20.1329 13.2127 20.0479 13.9201 19.8214C14.6275 19.5949 15.3066 19.2551 15.9009 18.7454C15.9858 18.8586 16.0707 18.9719 16.1838 19.1135C16.9479 19.9913 17.9382 20.416 19.1833 20.416C20.4849 20.416 21.447 19.9063 22.0978 18.887C22.5506 19.9063 23.2863 20.416 24.305 20.416C25.1256 20.416 25.7764 20.2178 26.2574 19.8497V17.7826C25.9745 18.0092 25.6632 18.1507 25.3237 18.1507C24.7577 18.0941 24.4465 17.8393 24.4465 17.3013ZM21.8998 16.7632C21.5319 17.7543 20.8528 18.2357 19.8341 18.2357C19.2116 18.2357 18.6739 18.0092 18.2495 17.5278C17.825 17.0747 17.627 16.5084 17.627 15.8854C17.627 15.2625 17.825 14.6961 18.2495 14.2431C18.6739 13.79 19.2116 13.5352 19.8341 13.5352C20.8245 13.5352 21.5036 14.0166 21.8998 15.0076V16.7632Z" fill="#F8F9F7"/>
<path d="M45.301 20.3028H36.3876L32.3412 16.2535V4.07754L36.3876 0.0283203H45.018L46.9988 5.97474L43.5183 4.81377H40.7452C40.7452 4.81377 39.6983 4.8704 39.0192 5.69158C38.3117 6.51275 38.3117 6.9658 38.2835 7.1357C38.2835 7.3056 38.2835 13.2237 38.2835 13.2237C38.2835 13.2237 38.2552 13.9033 39.0192 14.6678C39.7549 15.4324 40.7452 15.5456 40.7452 15.5456H43.8013L47.2817 14.3847L45.301 20.3028Z" fill="#F8F9F7"/>
<path d="M62.477 20.3028H53.507L49.7435 16.5367V3.76606L53.507 0H62.477L66.2405 3.76606V16.5367L62.477 20.3028ZM60.4397 6.2579C60.4397 6.2579 60.4114 5.69157 59.8737 5.09693C59.3078 4.50229 58.7136 4.5306 58.7136 4.5306H57.2704C57.2704 4.5306 56.7328 4.44566 56.1103 5.09693C55.516 5.77652 55.516 6.2579 55.516 6.2579V13.79C55.516 13.79 55.4878 14.3563 56.1103 14.951C56.7328 15.5456 57.2704 15.5173 57.2704 15.5173H58.7136C58.7136 15.5173 59.2795 15.5739 59.8737 14.951C60.4397 14.328 60.4397 13.79 60.4397 13.79V6.2579Z" fill="#F8F9F7"/>
<path d="M81.6905 20.3028H69.4099L70.5418 17.9808V2.35025L69.4099 0.0283203H77.8705L76.201 2.63341V15.4041L76.6255 15.3757H80.6719L83.6713 14.3847L81.6905 20.3028Z" fill="#F8F9F7"/>
<path d="M120.344 20.3028L121.475 17.9808V9.00457L121.617 7.84361L121.164 9.00457L116.552 20.3028H116.382L111.77 9.00457L111.317 7.84361L111.458 9.00457V17.9808L112.59 20.3028H105.573L106.676 17.9808V2.35025L105.573 0.0283203H113.213L116.552 8.1834L116.693 8.86299L116.835 8.1834L120.174 0.0283203H127.955L126.823 2.35025V17.9808L127.955 20.3028H120.344Z" fill="#F8F9F7"/>
<path d="M144.169 20.3028H130.87L132.002 17.9808V2.32193L130.87 0H144.169L147.367 3.19974V7.10739L145.188 9.28774L147.65 11.7513V16.8199L144.169 20.3028ZM141.566 5.7482C141.566 5.7482 141.594 5.32346 141.142 4.78545C140.745 4.33239 140.321 4.3607 140.208 4.3607C140.095 4.3607 137.52 4.3607 137.52 4.3607V4.64387V7.24897V7.53213C137.52 7.53213 140.038 7.53213 140.18 7.53213C140.293 7.53213 140.689 7.56045 141.142 7.10739C141.623 6.65433 141.566 6.22958 141.566 6.22958C141.566 6.05968 141.566 5.7482 141.566 5.7482ZM141.708 13.7617C141.708 13.7617 141.764 13.0255 141.283 12.4875C140.802 11.9495 140.208 11.8928 140.038 11.8928C139.868 11.8928 137.52 11.8928 137.52 11.8928V12.176V15.3757V15.8005C137.52 15.8005 139.897 15.8005 140.123 15.8005C140.349 15.8005 140.802 15.7722 141.283 15.2058C141.764 14.6678 141.708 13.9316 141.708 13.9316V13.7617Z" fill="#F8F9F7"/>
<path d="M163.836 20.3028H150.819L151.951 17.9808V2.35025L150.819 0.0283203H163.383L165.222 5.52168L162.675 4.64387H157.469L157.44 4.95535V6.96581V7.27728H159.619L161.798 6.54106V12.6291L159.619 11.8928H157.44V12.2043V15.3757H157.893H162.76L165.788 14.3847L163.836 20.3028Z" fill="#F8F9F7"/>
<path d="M98.2157 20.3311H89.2456L85.4822 16.565V3.79438L89.2456 0.0283203H98.2157L101.979 3.79438V16.565L98.2157 20.3311ZM96.1783 6.2579C96.1783 6.2579 96.15 5.69157 95.6124 5.09693C95.0464 4.50229 94.4522 4.53061 94.4522 4.53061H93.0091C93.0091 4.53061 92.4714 4.44566 91.8489 5.09693C91.2547 5.77652 91.2547 6.2579 91.2547 6.2579V13.79C91.2547 13.79 91.2264 14.3564 91.8489 14.951C92.4714 15.5456 93.0091 15.5173 93.0091 15.5173H94.4522C94.4522 15.5173 95.0182 15.574 95.6124 14.951C96.1783 14.328 96.1783 13.79 96.1783 13.79V6.2579Z" fill="#F8F9F7"/>
<path d="M11.5431 28.3162L10.8357 29.194C10.5245 28.7976 10.0434 28.5427 9.61897 28.5427C8.85498 28.5427 8.26076 29.194 8.26076 30.0152C8.26076 30.8647 8.85498 31.516 9.61897 31.516C10.0434 31.516 10.4962 31.2894 10.8357 30.9213L11.5714 31.7142C11.0621 32.2805 10.2698 32.6486 9.56238 32.6486C8.09098 32.6486 6.98743 31.516 6.98743 30.0435C6.98743 28.5711 8.11927 27.4667 9.59068 27.4667C10.2981 27.4384 11.0621 27.7782 11.5431 28.3162Z" fill="#F8F9F7"/>
<path d="M22.9185 30.0152C22.9185 31.4877 21.7866 32.6203 20.2585 32.6203C18.7587 32.6203 17.6268 31.516 17.6268 30.0152C17.6268 28.5428 18.7587 27.4385 20.2585 27.4385C21.7866 27.4385 22.9185 28.5428 22.9185 30.0152ZM18.9002 30.0436C18.9002 30.8931 19.5228 31.5726 20.2868 31.5726C21.0508 31.5726 21.6451 30.9214 21.6451 30.0436C21.6451 29.1941 21.0508 28.5428 20.2868 28.5428C19.5511 28.5428 18.9002 29.1658 18.9002 30.0436Z" fill="#F8F9F7"/>
<path d="M30.7565 28.5145V29.6755H32.9353V30.6948H30.7565V32.5637H29.5115V27.4951H33.1334V28.5145H30.7565Z" fill="#F8F9F7"/>
<path d="M40.8868 28.5145V29.6755H43.0939V30.6948H40.8868V32.5637H39.6417V27.4951H43.2637V28.5145H40.8868Z" fill="#F8F9F7"/>
<path d="M51.0452 28.5145V29.5056H53.3655V30.5249H51.0452V31.5443H53.7051V32.5637H49.8002V27.4951H53.6202V28.5145H51.0452Z" fill="#F8F9F7"/>
<path d="M61.6565 28.5145V29.5056H64.005V30.5249H61.6565V31.5443H64.3163V32.5637H60.4398V27.4951H64.2597V28.5145H61.6565Z" fill="#F8F9F7"/>
<path d="M80.8132 31.1479H80.7849H79.8511V32.5637H78.6061V27.4951H80.7849C82.0866 27.4951 82.8223 28.1464 82.8223 29.2507C82.8223 30.0153 82.511 30.5816 81.9451 30.8931L82.9637 32.5637H81.5489L80.8132 31.1479ZM80.7849 30.1285C81.3226 30.1285 81.6338 29.8454 81.6338 29.3074C81.6338 28.7693 81.3226 28.5145 80.7849 28.5145H79.8511V30.1285H80.7849Z" fill="#F8F9F7"/>
<path d="M94.537 30.0152C94.537 31.4877 93.4051 32.6203 91.8771 32.6203C90.3774 32.6203 89.2456 31.516 89.2456 30.0152C89.2456 28.5428 90.3774 27.4385 91.8771 27.4385C93.4051 27.4385 94.537 28.5428 94.537 30.0152ZM90.5472 30.0436C90.5472 30.8931 91.1697 31.5726 91.9337 31.5726C92.6977 31.5726 93.292 30.9214 93.292 30.0436C93.292 29.1941 92.6977 28.5428 91.9337 28.5428C91.1697 28.5428 90.5472 29.1658 90.5472 30.0436Z" fill="#F8F9F7"/>
<path d="M102.121 31.6293L101.753 32.5637H100.479L102.573 27.4951H103.847L105.912 32.5637H104.582L104.243 31.6293H102.121ZM103.196 28.7693L102.488 30.6382H103.903L103.196 28.7693Z" fill="#F8F9F7"/>
<path d="M116.099 28.0048L115.618 29.0242C115.109 28.7127 114.458 28.4862 114.062 28.4862C113.751 28.4862 113.524 28.5994 113.524 28.8543C113.524 29.7321 116.099 29.2224 116.099 31.0629C116.099 32.0823 115.222 32.6203 114.147 32.6203C113.326 32.6203 112.505 32.3089 111.911 31.7992L112.392 30.8081C112.902 31.2612 113.637 31.5726 114.147 31.5726C114.543 31.5726 114.769 31.4311 114.769 31.1196C114.769 30.2135 112.194 30.7515 112.194 28.9675C112.194 28.0331 112.958 27.4385 114.147 27.4385C114.854 27.4385 115.59 27.665 116.099 28.0048Z" fill="#F8F9F7"/>
<path d="M124.956 28.5428V32.5637H123.739V28.5428H122.268V27.4951H126.427V28.5428H124.956Z" fill="#F8F9F7"/>
<path d="M134.152 28.5145V29.5056H136.473V30.5249H134.152V31.5443H136.812V32.5637H132.907V27.4951H136.727V28.5145H134.152Z" fill="#F8F9F7"/>
<path d="M145.754 31.1479H145.726H144.792V32.5637H143.547V27.4951H145.726C147.027 27.4951 147.763 28.1464 147.763 29.2507C147.763 30.0153 147.452 30.5816 146.886 30.8931L147.904 32.5637H146.49L145.754 31.1479ZM145.726 30.1285C146.263 30.1285 146.575 29.8454 146.575 29.3074C146.575 28.7693 146.263 28.5145 145.726 28.5145H144.792V30.1285H145.726Z" fill="#F8F9F7"/>
<path d="M158.318 28.0048L157.837 29.0242C157.327 28.7127 156.677 28.4862 156.28 28.4862C155.969 28.4862 155.743 28.5994 155.743 28.8543C155.743 29.7321 158.318 29.2224 158.318 31.0629C158.318 32.0823 157.441 32.6203 156.365 32.6203C155.545 32.6203 154.724 32.3089 154.13 31.7992L154.611 30.8081C155.12 31.2612 155.856 31.5726 156.365 31.5726C156.761 31.5726 156.988 31.4311 156.988 31.1196C156.988 30.2135 154.413 30.7515 154.413 28.9675C154.413 28.0331 155.177 27.4385 156.365 27.4385C157.101 27.4385 157.808 27.665 158.318 28.0048Z" fill="#F8F9F7"/>
<path d="M170.089 1.27423C170.089 1.95382 169.551 2.52014 168.844 2.52014C168.137 2.52014 167.599 1.95382 167.599 1.27423C167.599 0.594642 168.137 0.0283203 168.844 0.0283203C169.551 0.0283203 170.089 0.594642 170.089 1.27423ZM169.806 1.27423C169.806 0.736223 169.382 0.311482 168.844 0.311482C168.306 0.311482 167.882 0.736223 167.882 1.27423C167.882 1.78392 168.278 2.23698 168.844 2.23698C169.382 2.23698 169.806 1.78392 169.806 1.27423ZM169.155 1.44413L169.41 1.84055H169.07L168.901 1.50076H168.872H168.646V1.84055H168.363V0.651271H168.872C169.184 0.651271 169.353 0.792852 169.353 1.07601C169.353 1.24591 169.297 1.35918 169.155 1.44413ZM168.872 1.27423C169.014 1.27423 169.07 1.18928 169.07 1.07601C169.07 0.962749 168.985 0.877806 168.872 0.877806H168.646V1.27423H168.872Z" fill="#F8F9F7"/>
</svg>
