<svg width="129" height="33" viewBox="0 0 129 33" fill="none" xmlns="http://www.w3.org/2000/svg">
<path fill-rule="evenodd" clip-rule="evenodd" d="M59.3084 27.7338V32.4982H60.1603V27.7338H62.9167V26.9314H56.5519V27.7338H59.3084Z" fill="#F8F9F7"/>
<path fill-rule="evenodd" clip-rule="evenodd" d="M39.1114 29.2384H34.3503V26.9314H33.4983V32.4982H34.3503V30.0408H39.1114V32.4982H39.9634V26.9314H39.1114V29.2384Z" fill="#F8F9F7"/>
<path fill-rule="evenodd" clip-rule="evenodd" d="M48.6335 26.8311C46.2279 26.8311 44.9249 28.0848 44.9249 29.7398C44.9249 31.3948 46.1778 32.6486 48.6335 32.6486C51.0391 32.6486 52.3422 31.3948 52.3422 29.7398C52.3422 28.0848 51.0391 26.8311 48.6335 26.8311ZM48.6335 31.796C46.7291 31.796 45.827 30.8933 45.827 29.6897C45.827 28.4861 46.7291 27.5833 48.6335 27.5833C50.538 27.5833 51.4401 28.4861 51.4401 29.6897C51.4401 30.8933 50.538 31.796 48.6335 31.796Z" fill="#F8F9F7"/>
<path fill-rule="evenodd" clip-rule="evenodd" d="M68.4797 30.0408H73.1405V29.2384H68.4797V27.7338H73.5916V26.9314H67.6277V32.4982H73.7419V31.6958H68.4797V30.0408Z" fill="#F8F9F7"/>
<path fill-rule="evenodd" clip-rule="evenodd" d="M92.0848 29.3386C90.8319 29.2885 89.6291 29.2383 89.6291 28.4861C89.6291 27.6836 91.1326 27.6335 91.6338 27.6335C92.6862 27.6335 93.6885 27.7839 94.4904 27.9845L94.6909 27.1821C93.7888 26.9815 92.7363 26.8311 91.7841 26.8311C90.4811 26.8311 88.7771 27.0818 88.7771 28.5362C88.7771 29.9906 90.4811 30.0909 92.0347 30.1411C93.438 30.2414 94.2398 30.2414 94.2398 30.8933C94.2398 31.6958 92.6862 31.7961 92.0347 31.7961C90.882 31.7961 89.8797 31.5955 88.8272 31.2945L88.5767 32.0468C89.6291 32.3979 90.7818 32.5985 91.8342 32.5985C93.2375 32.5985 95.0918 32.2976 95.0918 30.8432C95.1419 29.5392 93.6384 29.3888 92.0848 29.3386Z" fill="#F8F9F7"/>
<path fill-rule="evenodd" clip-rule="evenodd" d="M79.5055 26.9314H78.6535V32.4982H84.3668V31.6958H79.5055V26.9314Z" fill="#F8F9F7"/>
<path fill-rule="evenodd" clip-rule="evenodd" d="M68.7805 13.5409H54.0462V9.57896H67.0264V6.72032H54.0462V3.15956H68.3294V0.351074H51.0893V16.3996H68.7805V13.5409Z" fill="#F8F9F7"/>
<path fill-rule="evenodd" clip-rule="evenodd" d="M3.3781 0.351074H0.421204V16.3996H17.0099V13.5409H3.3781V0.351074Z" fill="#F8F9F7"/>
<path fill-rule="evenodd" clip-rule="evenodd" d="M32.3957 0C25.8806 0 21.771 3.2097 21.771 8.37531C21.771 13.5409 25.8304 16.7506 32.3957 16.7506C38.961 16.7506 43.0204 13.5409 43.0204 8.37531C43.0204 3.2097 38.961 0 32.3957 0ZM32.3957 13.892C27.6346 13.892 24.8281 11.8358 24.8281 8.37531C24.8281 4.91485 27.6848 2.85864 32.3957 2.85864C37.1568 2.85864 39.9633 4.91485 39.9633 8.37531C39.9633 11.8358 37.1568 13.892 32.3957 13.892Z" fill="#F8F9F7"/>
<path fill-rule="evenodd" clip-rule="evenodd" d="M98.6 7.12153L96.2445 12.237L94.2899 7.17168L91.5836 0.351074H88.3762L85.6699 7.12153L83.7654 12.237L81.3598 7.12153L78.1022 0.351074H74.5439L82.312 16.3996H85.3692L88.0755 9.4285L89.9799 4.16259L91.8843 9.4285L94.6407 16.3996H97.6979L105.416 0.351074H101.908L98.6 7.12153Z" fill="#F8F9F7"/>
<path fill-rule="evenodd" clip-rule="evenodd" d="M119.449 7.02122C116.391 6.87076 112.933 6.72031 112.933 4.965C112.933 3.00909 116.993 2.85864 118.246 2.85864C121.604 2.85864 124.41 3.36015 126.164 3.76137L126.465 3.81152L127.116 1.00303H126.816C124.26 0.401212 121.203 0 118.647 0C112.933 0 109.926 1.7553 109.926 5.11546C109.926 9.47865 114.888 9.7294 119.298 9.93001H119.449C123.308 10.1306 125.212 10.3312 125.212 11.6352C125.212 13.3403 122.055 13.892 119.298 13.892C116.291 13.892 113.585 13.4406 110.478 12.4376L110.177 12.3373L109.375 15.0455L109.676 15.1458C112.633 16.1488 115.79 16.7005 118.897 16.7005C122.405 16.7005 128.269 16.0485 128.269 11.4847C128.219 7.37228 123.157 7.17167 119.449 7.02122Z" fill="#F8F9F7"/>
</svg>
